<?xml version="1.0" encoding="utf-8"?>
<!-- Uploaded to: SVG Repo, www.svgrepo.com, Generator: SVG Repo Mixer Tools -->
<svg width="1000px" height="1000px" viewBox="0 -15.5 1055 1055" class="icon"  version="1.1" xmlns="http://www.w3.org/2000/svg"><path d="M705.638866 559.639753v-52.882555h111.674039V462.683177l-576.002939-18.620177v68.571779h119.510814v54.857422h-119.510814v98.931444h576.002939v-106.783892zM330.790259 251.732876l-13.07174 62.694198h428.420798l-20.908515-52.255614z" fill="#C0EAFF" /><path d="M275.901489 461.131496a15.673549 15.673549 0 0 1-15.219016-19.497896l44.309124-175.872897c4.670718-16.159429 21.645172-27.083893 41.440864-27.083893h362.49785c19.795693 0 36.770147 10.924464 41.299802 26.550992l15.861632 62.944974a15.673549 15.673549 0 1 1-30.406685 7.648692l-15.72057-62.412073c-0.376165-0.564248-4.404267-3.385487-11.049853-3.385487H346.432461c-6.645585 0-10.658014 2.836912-11.222261 4.012429l-44.121041 175.261629a15.689223 15.689223 0 0 1-15.18767 11.83353zM779.445609 461.131496c-7.006077 0-13.385211-4.733412-15.187669-11.849204l-14.921219-59.26169a15.673549 15.673549 0 1 1 30.406686-7.648692l14.921219 59.26169a15.673549 15.673549 0 0 1-15.219017 19.497896zM334.959423 785.338864c-36.25292 0-65.75054-29.356558-65.750539-65.452742v-45.296558a15.673549 15.673549 0 0 1 31.347098 0v45.296558c0 18.808259 15.422773 34.105643 34.403441 34.105643 18.964995 0 34.387767-15.297384 34.387768-34.105643v-45.296558a15.673549 15.673549 0 0 1 31.347098 0v45.296558c0.015674 36.096184-29.481946 65.452742-65.734866 65.452742zM720.387675 785.338864c-36.25292 0-65.75054-29.356558-65.750539-65.452742v-45.296558a15.673549 15.673549 0 0 1 31.347099 0v45.296558c0 18.808259 15.422773 34.105643 34.40344 34.105643s34.403441-15.297384 34.403441-34.105643v-45.296558a15.673549 15.673549 0 0 1 31.347099 0v45.296558c0 36.096184-29.49762 65.452742-65.75054 65.452742z" fill="#1F87DD" /><path d="M800.824331 462.667503v190.261216H254.538442V462.667503h546.285889m7.366568-31.347098H247.1562c-13.244149 0-23.964857 10.736381-23.964857 23.964857v228.990556h608.980086v-228.990556a23.980531 23.980531 0 0 0-23.98053-23.964857z" fill="#1F87DD" /><path d="M815.776897 621.409211H535.643549a15.673549 15.673549 0 0 1 0-31.347098h280.133348a15.673549 15.673549 0 0 1 0 31.347098zM488.513186 621.409211h-6.363461a15.673549 15.673549 0 0 1 0-31.347098h6.363461a15.673549 15.673549 0 0 1 0 31.347098zM415.944653 621.409211H246.591952a15.673549 15.673549 0 0 1 0-31.347098h169.352701a15.673549 15.673549 0 0 1 0 31.347098z" fill="#1F87DD" /><path d="M735.559671 333.376395H311.527467a15.673549 15.673549 0 0 1 0-31.347099H735.559671a15.673549 15.673549 0 0 1 0 31.347099z" fill="#1F87DD" /><path d="M422.323787 413.06072a15.673549 15.673549 0 0 1-9.466823-28.181042l45.798111-34.638544a15.673549 15.673549 0 0 1 18.9023 25.014985l-45.798111 34.638544a15.610855 15.610855 0 0 1-9.435477 3.166057z" fill="#1F87DD" /><path d="M559.937551 413.06072a15.673549 15.673549 0 0 1-9.466824-28.181042l45.798111-34.638544a15.673549 15.673549 0 1 1 18.902301 25.014985l-45.798112 34.638544a15.610855 15.610855 0 0 1-9.435476 3.166057z" fill="#1F87DD" /><path d="M340.821331 513.606539v28.447492H254.538442v-28.447492h86.282889m9.686253-31.347099H223.191343v91.14169h127.316241c11.958918 0 21.660845-9.701927 21.660845-21.660846v-47.819999c0-11.958918-9.701927-21.660845-21.660845-21.660845z" fill="#1F87DD" /><path d="M800.824331 513.606539v28.447492h-86.282889v-28.447492h86.282889m31.347098-31.347099h-127.316241c-11.958918 0-21.660845 9.701927-21.660845 21.660845v47.819999c0 11.958918 9.701927 21.660845 21.660845 21.660846h127.316241v-91.14169z" fill="#1F87DD" /></svg>